HIERARCHY
ROOT Torso
{
    OFFSET 0 0 0
    CHANNELS 6 Xposition Yposition Zposition Xrotation Yrotation Zrotation
    JOINT LHip1 
    {   
        OFFSET -0 -0.06 -0.01
        CHANNELS 3 Xrotation Yrotation Zrotation
        JOINT LHip2
        {
            OFFSET 0.055 -0.055 0
            CHANNELS 3 Xrotation Yrotation Zrotation
            JOINT LHip3
            {
                OFFSET 0 0 0.01
                CHANNELS 3 Xrotation Yrotation Zrotation
                JOINT LThigh
                {
                    OFFSET -0.01 0 0
                    CHANNELS 3 Xrotation Yrotation Zrotation
                    JOINT LLeg
                    {
                        OFFSET 0.01 -0.120 0.014
                        CHANNELS 3 Xrotation Yrotation Zrotation
                        JOINT LFoot
                        {
                            OFFSET 0 -0.1 -0.01
                            CHANNELS 3 Xrotation Yrotation Zrotation
                            End Site
                            {
                                OFFSET 0 -0.035 0.09
                            }
                        }
                    }
                }
            }
        }
    }
    JOINT RHip1 
    {   
        OFFSET 0 -0.06 -0.01
        CHANNELS 3 Xrotation Yrotation Zrotation
        JOINT RHip2
        {
            OFFSET -0.055 -0.055 0
            CHANNELS 3 Xrotation Yrotation Zrotation
            JOINT RHip3
            {
                OFFSET 0 0 0.01
                CHANNELS 3 Xrotation Yrotation Zrotation
                JOINT RThigh
                {
                    OFFSET -0.01 0 0
                    CHANNELS 3 Xrotation Yrotation Zrotation
                    JOINT RLeg
                    {
                        OFFSET 0.01 -0.120 0.014
                        CHANNELS 3 Xrotation Yrotation Zrotation
                        JOINT RFoot
                        {
                            OFFSET 0 -0.1 -0.01
                            CHANNELS 3 Xrotation Yrotation Zrotation
                            End Site
                            {
                                OFFSET 0 -0.035 0.09
                            }
                        }
                    }
                }
            }
        }
    }
    JOINT Neck
    {
        OFFSET 0 0.04 0
        CHANNELS 3 Xrotation Yrotation Zrotation
        JOINT Head
        {
            OFFSET 0 0.1 0
            CHANNELS 3 Xrotation Yrotation Zrotation
            End Site 
            {
                OFFSET 0 0.07 0
            }
        }
    }
    JOINT LUpperarm
    {
        OFFSET 0.098 0.15 0
        CHANNELS 3 Xrotation Yrotation Zrotation
        JOINT LLowerarm
        {
            OFFSET 0 0.009 0.09
            CHANNELS 3 Xrotation Yrotation Zrotation
            End Site
            {
                OFFSET 0 0 0.105
            }
        }
    }
    JOINT RUpperarm
    {
        OFFSET -0.098 0.15 0
        CHANNELS 3 Xrotation Yrotation Zrotation
        JOINT RLowerarm
        {
            OFFSET 0 0.009 0.09
            CHANNELS 3 Xrotation Yrotation Zrotation
            End Site
            {
                OFFSET 0 0 0.105
            }
        }
    }
}
MOTION
Frames: 27
Frame Time: 0.04
0 0 0 0 0 0 0 0.0 0 0 0.0 0 0 0.92 0 0 0 0 0 0 -1.38 0.46 0.0 0 0 0.0 0 0 -0.0 0 0 0.92 0 0 0 0 0 0 -1.38 0.46 -0.0 0 0 0.0 0 0.0 0 0 0.0 0 0.0 0 0.0 0.0 0.0 0 -0.0 0 -0.0 -0.0
0 0 0 0 0 0 0 0.0 0 0 0.0 0 0 1.83 0 0 0 0 0 0 -2.75 0.92 0.0 0 0 0.0 0 0 0.0 0 0 1.83 0 0 0 0 0 0 -2.75 0.92 0.0 0 0 0.0 0 0.0 0 0 0.0 0 0.0 0 -0.0 0.0 0.0 0 -0.0 0 -0.0 0.0
0 0 0 0 0 0 0 0.0 0 0 0.0 0 0 2.75 0 0 0 0 0 0 -4.13 1.38 0.0 0 0 0.0 0 0 -0.0 0 0 2.75 0 0 0 0 0 0 -4.13 1.38 0.0 0 0 0.0 0 0.0 0 0 0.0 0 0.0 0 -0.0 0.0 0.0 0 -0.0 0 -0.0 -0.0
0 0 0 0 0 0 0 0.0 0 0 0.0 0 0 3.67 0 0 0 0 0 0 -5.5 1.83 0.0 0 0 0.0 0 0 -0.0 0 0 3.67 0 0 0 0 0 0 -5.5 1.83 0.0 0 0 0.0 0 0.0 0 0 0.0 0 0.0 0 -0.0 0.0 0.0 0 -0.0 0 0.0 0.0
0 0 0 0 0 0 0 0.0 0 0 0.0 0 0 4.58 0 0 0 0 0 0 -6.88 2.29 0.0 0 0 0.0 0 0 -0.0 0 0 4.58 0 0 0 0 0 0 -6.88 2.29 -0.0 0 0 0.0 0 0.0 0 0 0.0 0 0.0 0 -0.0 0.0 0.0 0 -0.0 0 -0.0 0.0
0 0 0 0 0 0 0 0.0 0 0 0.0 0 0 5.5 0 0 0 0 0 0 -8.25 2.75 0.0 0 0 0.0 0 0 -0.0 0 0 5.5 0 0 0 0 0 0 -8.25 2.75 -0.0 0 0 0.0 0 0.0 0 0 0.0 0 0.0 0 -0.0 -0.0 0.0 0 -0.0 0 -0.0 0.0
0 0 0 0 0 0 0 0.0 0 0 0.0 0 0 6.42 0 0 0 0 0 0 -9.63 3.21 0.0 0 0 0.0 0 0 -0.0 0 0 6.42 0 0 0 0 0 0 -9.63 3.21 -0.0 0 0 0.0 0 0.0 0 0 0.0 0 0.0 0 -0.0 -0.0 0.0 0 -0.0 0 -0.0 0.0
0 0 0 0 0 0 0 0.0 0 0 0.0 0 0 7.33 0 0 0 0 0 0 -11.0 3.67 0.0 0 0 0.0 0 0 -0.0 0 0 7.33 0 0 0 0 0 0 -11.0 3.67 -0.0 0 0 0.0 0 0.0 0 0 0.0 0 0.0 0 -0.0 -0.0 0.0 0 -0.0 0 -0.0 0.0
0 0 0 0 0 0 0 0.0 0 0 0.0 0 0 8.25 0 0 0 0 0 0 -12.38 4.13 0.0 0 0 0.0 0 0 -0.0 0 0 8.25 0 0 0 0 0 0 -12.38 4.13 -0.0 0 0 0.0 0 0.0 0 0 0.0 0 0.0 0 -0.0 -0.0 0.0 0 -0.0 0 -0.0 0.0
0 0 0 0 0 0 0 0.0 0 0 0.0 0 0 9.17 0 0 0 0 0 0 -13.75 4.58 0.0 0 0 0.0 0 0 -0.0 0 0 9.17 0 0 0 0 0 0 -13.75 4.58 -0.0 0 0 0.0 0 0.0 0 0 0.0 0 0.0 0 -0.0 -0.0 0.0 0 -0.0 0 -0.0 0.0
0 0 0 0 0 0 0 0.0 0 0 0.0 0 0 10.08 0 0 0 0 0 0 -15.13 5.04 0.0 0 0 0.0 0 0 -0.0 0 0 10.08 0 0 0 0 0 0 -15.13 5.04 -0.0 0 0 0.0 0 0.0 0 0 0.0 0 0.0 0 -0.0 -0.0 0.0 0 -0.0 0 -0.0 0.0
0 0 0 0 0 0 0 -0.0 0 0 -0.0 0 0 14.69 0 0 0 0 0 0 -16.5 5.5 0.0 0 0 -0.0 0 0 0.0 0 0 14.69 0 0 0 0 0 0 -16.5 5.5 -0.0 0 0 0.0 0 0.0 0 0 -0.0 0 -0.0 0 -0.0 0.0 -0.0 0 0.0 0 -0.0 -0.0
0 0 0 0 0 0 0 -0.0 0 0 -0.0 0 0 15.6 0 0 0 0 0 0 -17.88 5.96 0.0 0 0 -0.0 0 0 0.0 0 0 15.6 0 0 0 0 0 0 -17.88 5.96 -0.0 0 0 0.0 0 0.0 0 0 -0.0 0 -0.0 0 -0.0 0.0 -0.0 0 0.0 0 -0.0 -0.0
0 0 0 0 0 0 0 -0.0 0 0 -0.0 0 0 16.52 0 0 0 0 0 0 -19.25 6.42 0.0 0 0 -0.0 0 0 0.0 0 0 16.52 0 0 0 0 0 0 -19.25 6.42 -0.0 0 0 0.0 0 0.0 0 0 -0.0 0 -0.0 0 -0.0 0.0 -0.0 0 0.0 0 -0.0 -0.0
0 0 0 0 0 0 0 -0.0 0 0 -0.0 0 0 17.44 0 0 0 0 0 0 -20.63 6.88 0.0 0 0 -0.0 0 0 0.0 0 0 17.44 0 0 0 0 0 0 -20.63 6.88 -0.0 0 0 0.0 0 0.0 0 0 -0.0 0 -0.0 0 -0.0 0.0 -0.0 0 0.0 0 -0.0 -0.0
0 0 0 0 0 0 0 -0.0 0 0 -0.0 0 0 18.35 0 0 0 0 0 0 -22.0 7.33 0.0 0 0 -0.0 0 0 0.0 0 0 18.35 0 0 0 0 0 0 -22.0 7.33 -0.0 0 0 0.0 0 0.0 0 0 -0.0 0 -0.0 0 -0.0 0.0 -0.0 0 0.0 0 -0.0 -0.0
0 0 0 0 0 0 0 -0.0 0 0 -0.0 0 0 19.27 0 0 0 0 0 0 -23.38 7.79 0.0 0 0 -0.0 0 0 0.0 0 0 19.27 0 0 0 0 0 0 -23.38 7.79 -0.0 0 0 0.0 0 0.0 0 0 -0.0 0 -0.0 0 -0.0 0.0 -0.0 0 0.0 0 -0.0 -0.0
0 0 0 0 0 0 0 -0.0 0 0 -0.0 0 0 20.19 0 0 0 0 0 0 -24.75 8.25 0.0 0 0 -0.0 0 0 0.0 0 0 20.19 0 0 0 0 0 0 -24.75 8.25 -0.0 0 0 0.0 0 0.0 0 0 -0.0 0 -0.0 0 -0.0 0.0 -0.0 0 0.0 0 -0.0 -0.0
0 0 0 0 0 0 0 -0.0 0 0 -0.0 0 0 21.1 0 0 0 0 0 0 -26.13 8.71 0.0 0 0 -0.0 0 0 0.0 0 0 21.1 0 0 0 0 0 0 -26.13 8.71 -0.0 0 0 0.0 0 0.0 0 0 -0.0 0 -0.0 0 -0.0 0.0 -0.0 0 0.0 0 -0.0 -0.0
0 0 0 0 0 0 0 -0.0 0 0 -0.0 0 0 22.02 0 0 0 0 0 0 -27.5 9.17 0.0 0 0 -0.0 0 0 0.0 0 0 22.02 0 0 0 0 0 0 -27.5 9.17 -0.0 0 0 0.0 0 -0.0 0 0 -0.0 0 -0.0 0 -0.0 0.0 -0.0 0 0.0 0 -0.0 -0.0
0 0 0 0 0 0 0 -0.0 0 0 -0.0 0 0 22.94 0 0 0 0 0 0 -28.88 9.63 0.0 0 0 -0.0 0 0 0.0 0 0 22.94 0 0 0 0 0 0 -28.88 9.63 -0.0 0 0 0.0 0 -0.0 0 0 -0.0 0 -0.0 0 -0.0 0.0 -0.0 0 0.0 0 -0.0 -0.0
0 0 0 0 0 0 0 -0.0 0 0 -0.0 0 0 23.85 0 0 0 0 0 0 -30.25 10.08 0.0 0 0 -0.0 0 0 0.0 0 0 23.85 0 0 0 0 0 0 -30.25 10.08 -0.0 0 0 0.0 0 -0.0 0 0 -0.0 0 -0.0 0 -0.0 0.0 -0.0 0 0.0 0 -0.0 -0.0
0 0 0 0 0 0 0 -0.0 0 0 -0.0 0 0 24.77 0 0 0 0 0 0 -31.63 10.54 0.0 0 0 -0.0 0 0 0.0 0 0 24.77 0 0 0 0 0 0 -31.63 10.54 -0.0 0 0 0.0 0 -0.0 0 0 -0.0 0 -0.0 0 -0.0 0.0 -0.0 0 0.0 0 -0.0 -0.0
0 0 0 0 0 0 0 -0.0 0 0 -0.0 0 0 25.69 0 0 0 0 0 0 -33.0 11.0 0.0 0 0 -0.0 0 0 0.0 0 0 25.69 0 0 0 0 0 0 -33.0 11.0 -0.0 0 0 0.0 0 -0.0 0 0 -0.0 0 -0.0 0 -0.0 0.0 -0.0 0 0.0 0 -0.0 -0.0
0 0 0 0 0 0 0 -0.0 0 0 -0.0 0 0 26.6 0 0 0 0 0 0 -34.38 11.46 0.0 0 0 -0.0 0 0 0.0 0 0 26.6 0 0 0 0 0 0 -34.38 11.46 -0.0 0 0 0.0 0 -0.0 0 0 -0.0 0 -0.0 0 -0.0 0.0 -0.0 0 0.0 0 -0.0 -0.0
0 0 0 0 0 0 0 -0.0 0 0 -0.0 0 0 27.52 0 0 0 0 0 0 -35.75 11.92 0.0 0 0 -0.0 0 0 0.0 0 0 27.52 0 0 0 0 0 0 -35.75 11.92 -0.0 0 0 0.0 0 -0.0 0 0 -0.0 0 -0.0 0 -0.0 0.0 -0.0 0 0.0 0 -0.0 -0.0
0 0 0 0 0 0 0 -0.0 0 0 -0.0 0 0 28.44 0 0 0 0 0 0 -37.13 12.38 0.0 0 0 -0.0 0 0 0.0 0 0 28.44 0 0 0 0 0 0 -37.13 12.38 -0.0 0 0 0.0 0 -0.0 0 0 -0.0 0 -0.0 0 -0.0 0.0 -0.0 0 0.0 0 -0.0 -0.0
